<svg width="36" height="24" viewBox="0 0 36 24" fill="none" xmlns="http://www.w3.org/2000/svg">
<path fill-rule="evenodd" clip-rule="evenodd" d="M1.71176 0C0.766383 0 0 0.766384 0 1.71177V22.2529C0 23.1983 0.766384 23.9647 1.71177 23.9647H34.2353C35.1807 23.9647 35.9471 23.1983 35.9471 22.2529V1.71176C35.9471 0.766383 35.1807 0 34.2353 0H1.71176ZM17.7501 17.3179C17.1031 17.3179 16.5023 17.2409 15.9477 17.0868C15.3931 16.9328 14.9103 16.7068 14.4995 16.409C14.0887 16.1009 13.7652 15.7311 13.5289 15.2998C13.303 14.8581 13.19 14.36 13.19 13.8054C13.19 13.2816 13.2978 12.7937 13.5135 12.3418C13.7292 11.8797 14.1246 11.4688 14.6998 11.1094C14.3095 10.8423 14.0117 10.5342 13.8062 10.185C13.6008 9.82554 13.4981 9.35309 13.4981 8.76767C13.4981 8.34657 13.5957 7.95629 13.7908 7.59682C13.9962 7.22708 14.2838 6.90869 14.6536 6.64165C15.0233 6.36435 15.4701 6.14867 15.9939 5.99461C16.5177 5.84055 17.1031 5.76352 17.7501 5.76352C18.3972 5.76352 18.9826 5.84055 19.5064 5.99461C20.0302 6.14867 20.4719 6.36435 20.8313 6.64165C21.2011 6.90869 21.4835 7.22708 21.6786 7.59682C21.8841 7.95629 21.9868 8.34657 21.9868 8.76767C21.9868 9.35309 21.8841 9.82554 21.6786 10.185C21.4732 10.5342 21.1805 10.8423 20.8005 11.1094C21.3757 11.4688 21.7711 11.8797 21.9868 12.3418C22.2024 12.7937 22.3103 13.2816 22.3103 13.8054C22.3103 14.36 22.1922 14.8581 21.956 15.2998C21.73 15.7311 21.4116 16.1009 21.0008 16.409C20.59 16.7068 20.1072 16.9328 19.5526 17.0868C18.998 17.2409 18.3972 17.3179 17.7501 17.3179ZM17.7501 15.4384C18.0685 15.4384 18.3458 15.3922 18.5821 15.2998C18.8286 15.2073 19.034 15.0841 19.1983 14.93C19.3626 14.7657 19.4859 14.5808 19.568 14.3754C19.6605 14.17 19.7067 13.9492 19.7067 13.713C19.7067 13.2508 19.5372 12.8605 19.1983 12.5421C18.8696 12.2134 18.3869 12.0491 17.7501 12.0491C17.1134 12.0491 16.6255 12.2134 16.2866 12.5421C15.9579 12.8605 15.7936 13.2508 15.7936 13.713C15.7936 13.9492 15.8347 14.17 15.9168 14.3754C16.0093 14.5808 16.1377 14.7657 16.302 14.93C16.4663 15.0841 16.6666 15.2073 16.9028 15.2998C17.1493 15.3922 17.4318 15.4384 17.7501 15.4384ZM17.7501 10.3853C18.3253 10.3853 18.7567 10.2569 19.0442 10.0001C19.3318 9.7331 19.4756 9.40444 19.4756 9.01416C19.4756 8.61361 19.3318 8.28495 19.0442 8.02818C18.7567 7.77142 18.3253 7.64304 17.7501 7.64304C17.175 7.64304 16.7436 7.77142 16.4561 8.02818C16.1685 8.28495 16.0247 8.61361 16.0247 9.01416C16.0247 9.40444 16.1685 9.7331 16.4561 10.0001C16.7436 10.2569 17.175 10.3853 17.7501 10.3853ZM8.79873 17.1177V9.61499H6.25676V7.75088C6.71894 7.74061 7.11949 7.69952 7.45842 7.62763C7.80762 7.54547 8.10546 7.43249 8.35196 7.2887C8.59845 7.14491 8.80387 6.96518 8.96819 6.7495C9.13252 6.52354 9.27631 6.25651 9.39956 5.94839H11.3253V17.1177H8.79873ZM26.4671 15.4059V13.0094H23.9269V11.3439H26.4671V8.95938H28.3244V11.3439H30.8527V13.0094H28.3244V15.4059H26.4671Z" fill="white"/>
</svg>
