<svg width="463" height="151" viewBox="0 0 463 151" fill="none" xmlns="http://www.w3.org/2000/svg">
<path d="M462.133 0.775391H0V83.0543H462.133V0.775391Z" fill="#FF267E"/>
<path d="M149.886 40.3036H122.383V32.3194H155.654V21.2974H106.435V62.3476H122.383V51.3256H149.886V40.3036Z" fill="#000055"/>
<path d="M237.302 48.6368L222.709 21.2974H204.401L228.107 62.3476H246.272L269.958 21.2974H251.916L237.302 48.6368Z" fill="#000055"/>
<path d="M321.083 41.4941C324.731 40.0799 327.173 36.5804 327.241 32.6683C327.241 25.936 321.555 21.2974 310.369 21.2974H274.266V62.3476H311.211C323.218 62.3476 328.554 57.6063 328.554 50.7304C328.472 46.8922 326.153 43.4235 321.083 41.4941ZM289.803 31.2315H307.598C307.801 31.1905 308.009 31.1699 308.216 31.1699C309.94 31.1699 311.356 32.5882 311.356 34.3103C311.356 36.0324 309.94 37.4506 308.216 37.4506C308.009 37.4506 307.801 37.4301 307.598 37.3891H289.803V31.2315ZM308.891 52.5777H289.803V46.4201H308.891C309.095 46.3791 309.302 46.3585 309.509 46.3585C311.233 46.3585 312.649 47.7768 312.649 49.4989C312.649 51.2209 311.233 52.6392 309.509 52.6392C309.302 52.6392 309.095 52.6187 308.891 52.5777Z" fill="#000055"/>
<path d="M351.991 46.2764H379.454V37.3685H351.991V32.3194H382.348V21.2974H336.043V62.3476H383.066V51.3256H351.991V46.2764Z" fill="#000055"/>
<path d="M389.656 21.2974V32.3194H407.554V62.3476H423.686V32.3194H441.564V21.2974H389.656Z" fill="#000055"/>
<path d="M174.185 21.2974L150.499 62.3476H167.453L170.655 56.2927H195.983L199.184 62.3476H216.836L193.13 21.2974H174.185ZM176.237 45.6402L183.236 32.422L190.236 45.6402H176.237Z" fill="#000055"/>
<path d="M21.2136 37.3875L35.3554 62.346H53.5201L39.3578 37.3875H21.2136Z" fill="#000055"/>
<path d="M67.6625 37.3875L53.5208 62.346H71.6649L85.8067 37.3875H67.6625Z" fill="#000055"/>
<path d="M53.5197 12.4902L39.3574 37.3872H67.6615L53.5197 12.4902Z" fill="#000055"/>
<path d="M0.702416 150.073V82.9063H202.466V150.073H0.702416Z" fill="#000055" stroke="#FF267E" stroke-width="1.40483"/>
<path d="M45.3063 121.411C45.1175 122.796 44.7399 124.031 44.098 125.191C43.456 126.351 42.5875 127.324 41.568 128.148C40.5485 129.009 39.3402 129.645 37.9808 130.094C36.5837 130.581 35.0733 130.805 33.4496 130.805C31.4106 130.805 29.5981 130.468 28.0121 129.795C26.4262 129.158 25.1046 128.223 24.0096 126.95C22.8768 125.715 22.0838 124.256 21.5174 122.496C20.951 120.737 20.6489 118.791 20.6489 116.62C20.6489 114.487 20.951 112.541 21.5552 110.819C22.1593 109.098 23.0278 107.638 24.1606 106.44C25.2557 105.243 26.615 104.307 28.2387 103.671C29.8246 103.035 31.5994 102.698 33.6006 102.698C35.2243 102.698 36.697 102.922 38.0186 103.334C39.3402 103.783 40.5107 104.419 41.5303 105.205C42.5498 106.029 43.3805 107.002 44.0224 108.125C44.6644 109.285 45.0797 110.557 45.3063 111.98H40.1709C39.9066 111.044 39.5667 110.221 39.1514 109.584C38.6983 108.948 38.2074 108.461 37.641 108.05C37.0368 107.638 36.4327 107.376 35.753 107.189C35.0355 107.039 34.3181 106.964 33.5629 106.964C32.5434 106.964 31.5616 107.152 30.6931 107.563C29.7869 108.012 28.9939 108.611 28.352 109.435C27.7101 110.258 27.1814 111.268 26.8038 112.466C26.4262 113.664 26.2374 115.049 26.2374 116.62C26.2374 118.23 26.4262 119.689 26.8038 120.887C27.1814 122.122 27.7101 123.17 28.352 123.994C28.9939 124.854 29.7491 125.491 30.6176 125.902C31.4861 126.314 32.3923 126.539 33.3741 126.539C34.167 126.539 34.96 126.464 35.6774 126.239C36.3949 126.052 37.0746 125.753 37.6787 125.341C38.2451 124.967 38.7738 124.405 39.1891 123.769C39.6045 123.133 39.9443 122.347 40.1709 121.411H45.3063Z" fill="#FF267E"/>
<path d="M60.2582 103.177H65.6957L75.9287 130.312H70.0758L68.1501 124.81H57.5017L55.576 130.312H50.063L60.2582 103.177ZM59.0499 120.431H66.6019L62.8259 109.727L59.0499 120.431Z" fill="#FF267E"/>
<path d="M89.4461 118.417C88.351 118.192 87.2937 117.893 86.312 117.481C85.2924 117.07 84.424 116.546 83.7065 115.909C82.9513 115.273 82.3472 114.525 81.9318 113.626C81.4787 112.766 81.2521 111.718 81.2521 110.557C81.2521 109.173 81.592 108.012 82.2716 107.002C82.9136 106.029 83.782 105.205 84.8393 104.569C85.8588 103.933 87.0294 103.484 88.351 103.147C89.6349 102.847 90.9187 102.698 92.1648 102.698C93.5619 102.698 94.9213 102.885 96.2051 103.297C97.4512 103.708 98.584 104.27 99.5658 104.981C100.548 105.729 101.34 106.628 101.945 107.675C102.511 108.723 102.851 109.884 102.926 111.194H97.7155C97.6022 110.408 97.3757 109.734 96.9981 109.173C96.6205 108.649 96.1674 108.199 95.6387 107.863C95.1101 107.563 94.5059 107.301 93.864 107.152C93.2221 107.039 92.5801 106.964 91.9382 106.964C91.2963 106.964 90.6921 107.039 90.0502 107.152C89.4083 107.264 88.8419 107.451 88.351 107.713C87.8601 108.012 87.4448 108.349 87.1427 108.761C86.8028 109.21 86.6518 109.734 86.6518 110.333C86.6518 111.268 87.0294 112.017 87.7469 112.578C88.4643 113.14 89.3705 113.514 90.4656 113.701L94.0528 114.337C95.1478 114.525 96.2806 114.824 97.4134 115.161C98.5085 115.498 99.528 115.984 100.434 116.583C101.303 117.219 102.02 118.005 102.587 118.941C103.153 119.914 103.417 121.112 103.417 122.496C103.417 123.881 103.115 125.116 102.473 126.127C101.831 127.175 100.963 128.036 99.9434 128.747C98.8861 129.458 97.6778 129.944 96.3939 130.281C95.0723 130.655 93.713 130.805 92.3158 130.805C90.6166 130.805 89.1062 130.581 87.7469 130.131C86.3497 129.72 85.1792 129.084 84.1596 128.26C83.1401 127.474 82.3472 126.501 81.743 125.303C81.1388 124.143 80.7612 122.833 80.6479 121.374H85.8588C86.0099 122.384 86.2742 123.208 86.6896 123.844C87.1049 124.517 87.5958 125.041 88.2 125.453C88.7664 125.865 89.4461 126.127 90.2013 126.277C90.9187 126.464 91.7117 126.539 92.5046 126.539C93.1088 126.539 93.7507 126.464 94.3926 126.351C95.0346 126.239 95.601 126.015 96.1674 125.715C96.696 125.453 97.1491 125.079 97.489 124.555C97.8288 124.068 97.9798 123.47 97.9798 122.758C97.9798 122.197 97.8666 121.673 97.6022 121.261C97.3379 120.85 96.9981 120.513 96.545 120.213C96.0918 119.951 95.5632 119.689 94.959 119.502C94.3171 119.315 93.6374 119.165 92.92 119.053L89.4461 118.417Z" fill="#FF267E"/>
<path d="M115.92 103.177H110.521V130.312H115.92V103.177Z" fill="#FF267E"/>
<path d="M140.648 130.312L129.697 109.615V130.312H124.6V103.177H131.623L142.573 123.874V103.177H147.671V130.312H140.648Z" fill="#FF267E"/>
<path d="M160.851 116.733C160.851 118.342 161.078 119.727 161.493 120.962C161.908 122.197 162.437 123.208 163.154 124.031C163.872 124.854 164.702 125.491 165.646 125.902C166.59 126.314 167.61 126.539 168.667 126.539C169.725 126.539 170.744 126.314 171.688 125.902C172.632 125.491 173.463 124.854 174.18 124.031C174.898 123.208 175.464 122.197 175.879 120.962C176.257 119.727 176.484 118.342 176.484 116.733C176.484 115.123 176.257 113.739 175.879 112.504C175.464 111.306 174.898 110.295 174.18 109.472C173.463 108.649 172.632 108.012 171.688 107.601C170.744 107.189 169.725 106.964 168.667 106.964C167.61 106.964 166.59 107.189 165.646 107.601C164.702 108.012 163.872 108.649 163.154 109.472C162.437 110.295 161.908 111.306 161.493 112.504C161.078 113.739 160.851 115.123 160.851 116.733ZM182.072 116.733C182.072 118.829 181.77 120.737 181.128 122.459C180.486 124.218 179.618 125.678 178.447 126.913C177.239 128.185 175.842 129.121 174.218 129.795C172.557 130.468 170.706 130.805 168.667 130.805C166.628 130.805 164.778 130.468 163.154 129.795C161.493 129.121 160.096 128.185 158.925 126.913C157.717 125.678 156.848 124.218 156.206 122.459C155.565 120.737 155.262 118.829 155.262 116.733C155.262 114.637 155.565 112.728 156.206 110.969C156.848 109.247 157.717 107.788 158.925 106.553C160.096 105.318 161.493 104.382 163.154 103.708C164.778 103.035 166.628 102.698 168.667 102.698C170.706 102.698 172.557 103.035 174.218 103.708C175.842 104.382 177.239 105.318 178.447 106.553C179.618 107.788 180.486 109.247 181.128 110.969C181.77 112.728 182.072 114.637 182.072 116.733Z" fill="#FF267E"/>
</svg>
