<svg width="32" height="24" viewBox="0 0 32 24" fill="none" xmlns="http://www.w3.org/2000/svg">
<path d="M30.8085 15.4367V15.0666H30.716L30.6081 15.3133L30.5001 15.0666H30.4076V15.4367H30.4693V15.1591L30.5772 15.4059H30.6543L30.7623 15.1591V15.4367H30.8085ZM30.1917 15.4367V15.1283H30.315V15.0666H30.0066V15.1283H30.13V15.4367H30.1917Z" fill="#EDEDED"/>
<path d="M19.8438 17.0251H11.5009V2.03558H19.8438V17.0251Z" fill="#CBCACA"/>
<path d="M12.0407 9.53037C12.0407 6.49237 13.4595 3.77822 15.6801 2.03561C14.0609 0.755644 12.0099 0 9.78919 0C4.53052 0 0.25882 4.2717 0.25882 9.53037C0.25882 14.789 4.53052 19.0607 9.78919 19.0607C12.0099 19.0607 14.0609 18.3051 15.6801 17.0251C13.4595 15.2825 12.0407 12.5684 12.0407 9.53037Z" fill="#8C8C8C"/>
<path d="M31.1015 9.53037C31.1015 14.789 26.8298 19.0607 21.5711 19.0607C19.3505 19.0607 17.2994 18.3051 15.6802 17.0251C17.9009 15.2825 19.3196 12.5684 19.3196 9.53037C19.3196 6.49237 17.9009 3.77822 15.6802 2.03561C17.2994 0.755644 19.3505 0 21.5711 0C26.8298 0 31.1015 4.2717 31.1015 9.53037Z" fill="#EDEDED"/>
<path d="M22.6507 21.266C22.7587 21.266 22.9283 21.2814 23.0363 21.3277L22.8666 21.852C22.7432 21.8057 22.6353 21.7903 22.5273 21.7903C22.1727 21.7903 21.9876 22.0216 21.9876 22.438V23.8568H21.4324V21.3277H21.9722V21.6361C22.1264 21.4048 22.3423 21.266 22.6507 21.266ZM20.6151 21.8212H19.7207V22.9623C19.7207 23.2091 19.8132 23.3787 20.0908 23.3787C20.2296 23.3787 20.4146 23.3325 20.5843 23.2399L20.7385 23.718C20.5688 23.8414 20.2913 23.9185 20.0445 23.9185C19.3968 23.9185 19.1655 23.5638 19.1655 22.9778V21.8212H18.6566V21.3123H19.1655V20.5412H19.7207V21.3123H20.6151V21.8212ZM13.5676 22.3609C13.6293 21.9908 13.8452 21.7441 14.2461 21.7441C14.6008 21.7441 14.8321 21.96 14.8938 22.3609H13.5676ZM15.4644 22.5922C15.4644 21.8057 14.9709 21.266 14.2615 21.266C13.5213 21.266 12.997 21.8057 12.997 22.5922C12.997 23.3941 13.5367 23.9185 14.2924 23.9185C14.6779 23.9185 15.0172 23.8259 15.3256 23.5638L15.048 23.1628C14.8321 23.3325 14.57 23.425 14.3078 23.425C13.9531 23.425 13.6293 23.2553 13.5521 22.8081H15.4335C15.449 22.731 15.4644 22.6693 15.4644 22.5922ZM17.8855 21.9754C17.7313 21.8829 17.4229 21.7595 17.099 21.7595C16.7906 21.7595 16.621 21.8674 16.621 22.0525C16.621 22.2221 16.806 22.2684 17.0528 22.2992L17.3149 22.3301C17.8701 22.4072 18.194 22.6385 18.194 23.0857C18.194 23.5638 17.7776 23.9185 17.0374 23.9185C16.621 23.9185 16.2355 23.8105 15.9425 23.5946L16.2046 23.1628C16.3897 23.3016 16.6673 23.425 17.0528 23.425C17.4229 23.425 17.6234 23.317 17.6234 23.1166C17.6234 22.9778 17.4846 22.9007 17.1762 22.8544L16.914 22.8236C16.3434 22.7464 16.035 22.4843 16.035 22.0833C16.035 21.5744 16.4514 21.266 17.0836 21.266C17.4846 21.266 17.8547 21.3585 18.1169 21.5282L17.8855 21.9754ZM24.6709 21.7749C24.563 21.7749 24.455 21.7903 24.3625 21.8366C24.27 21.8829 24.1774 21.9291 24.1157 22.0062C24.0541 22.0833 23.9924 22.1604 23.9461 22.2684C23.8998 22.3609 23.8844 22.4843 23.8844 22.5922C23.8844 22.7156 23.8998 22.8236 23.9461 22.9161C23.9924 23.0086 24.0386 23.1011 24.1157 23.1782C24.1929 23.2553 24.27 23.3016 24.3625 23.3479C24.455 23.3941 24.563 23.4096 24.6709 23.4096C24.7789 23.4096 24.8868 23.3941 24.9793 23.3479C25.0719 23.3016 25.1644 23.2553 25.2261 23.1782C25.3032 23.1011 25.3494 23.024 25.3957 22.9161C25.442 22.8236 25.4574 22.7002 25.4574 22.5922C25.4574 22.4689 25.442 22.3609 25.3957 22.2684C25.3494 22.1759 25.3032 22.0833 25.2261 22.0062C25.149 21.9291 25.0719 21.8829 24.9793 21.8366C24.8868 21.8057 24.7789 21.7749 24.6709 21.7749ZM24.6709 21.266C24.8714 21.266 25.0564 21.2968 25.2107 21.374C25.3803 21.4356 25.5191 21.5282 25.6425 21.6515C25.7658 21.7749 25.8584 21.9137 25.9355 22.0679C25.9971 22.2375 26.0434 22.4072 26.0434 22.5922C26.0434 22.7773 26.0126 22.9623 25.9355 23.1166C25.8738 23.2862 25.7658 23.425 25.6425 23.5329C25.5191 23.6563 25.3803 23.7488 25.2107 23.8105C25.041 23.8722 24.856 23.9185 24.6709 23.9185C24.4704 23.9185 24.2854 23.8876 24.1312 23.8105C23.9615 23.7488 23.8227 23.6563 23.6994 23.5329C23.576 23.4096 23.4835 23.2708 23.4064 23.1166C23.3447 22.9469 23.2984 22.7773 23.2984 22.5922C23.2984 22.4072 23.3293 22.2221 23.4064 22.0679C23.4681 21.8983 23.576 21.7595 23.6994 21.6515C23.8227 21.5282 23.9615 21.4356 24.1312 21.374C24.2854 21.2968 24.4704 21.266 24.6709 21.266ZM10.3599 22.5922C10.3599 22.145 10.6529 21.7749 11.131 21.7749C11.5936 21.7749 11.8866 22.1296 11.8866 22.5922C11.8866 23.0549 11.5782 23.3941 11.131 23.3941C10.6529 23.3941 10.3599 23.0395 10.3599 22.5922ZM12.411 22.5922V21.3277H11.8558V21.6361C11.6862 21.4048 11.424 21.266 11.0539 21.266C10.3445 21.266 9.78935 21.8212 9.78935 22.5922C9.78935 23.3633 10.3445 23.9185 11.0539 23.9185C11.4086 23.9185 11.6708 23.7797 11.8558 23.5484V23.8568H12.411V22.5922ZM9.31129 23.8568V22.2684C9.31129 21.667 8.92576 21.266 8.30891 21.266C7.98506 21.266 7.64579 21.3585 7.41447 21.7132C7.24484 21.4356 6.96725 21.266 6.58172 21.266C6.31956 21.266 6.04198 21.3431 5.8415 21.6361V21.3277H5.28633V23.8568H5.8415V22.4534C5.8415 22.0216 6.08824 21.7749 6.45835 21.7749C6.82846 21.7749 7.01352 22.0062 7.01352 22.438V23.8414H7.56868V22.438C7.56868 22.0062 7.83085 21.7595 8.18554 21.7595C8.55565 21.7595 8.7407 21.9908 8.7407 22.4226V23.8259H9.31129V23.8568Z" fill="#EDEDED"/>
<path d="M26.6292 23.6563V23.718H26.6909C26.7063 23.718 26.7218 23.718 26.7218 23.7026C26.7372 23.7026 26.7372 23.6872 26.7372 23.6717C26.7372 23.6563 26.7372 23.6563 26.7218 23.6563C26.7218 23.6563 26.7063 23.6409 26.6909 23.6409H26.6292V23.6563ZM26.6909 23.6255C26.7218 23.6255 26.7372 23.6255 26.7526 23.6409C26.768 23.6563 26.7834 23.6717 26.7834 23.7026C26.7834 23.718 26.7834 23.7334 26.768 23.7489C26.7526 23.7643 26.7372 23.7643 26.7063 23.7643L26.7834 23.8568H26.7218L26.6446 23.7643H26.6292V23.8568H26.583V23.6255H26.6909ZM26.6755 23.9339C26.7063 23.9339 26.7218 23.9339 26.7526 23.9185C26.7834 23.9031 26.7989 23.8876 26.8143 23.8722C26.8297 23.8568 26.8451 23.8414 26.8605 23.8105C26.876 23.7797 26.876 23.7643 26.876 23.7334C26.876 23.7026 26.876 23.6872 26.8605 23.6563C26.8451 23.6255 26.8297 23.6101 26.8143 23.5946C26.7989 23.5792 26.7834 23.5638 26.7526 23.5484C26.7372 23.533 26.7063 23.533 26.6755 23.533C26.6446 23.533 26.6292 23.533 26.5984 23.5484C26.5675 23.5638 26.5521 23.5792 26.5367 23.5946C26.5213 23.6101 26.5059 23.6409 26.4904 23.6563C26.475 23.6872 26.475 23.7026 26.475 23.7334C26.475 23.7643 26.475 23.7797 26.4904 23.8105C26.5059 23.8414 26.5213 23.8568 26.5367 23.8722C26.5521 23.8876 26.583 23.9031 26.5984 23.9185C26.6292 23.9339 26.6446 23.9339 26.6755 23.9339ZM26.6755 23.4867C26.7063 23.4867 26.7372 23.4867 26.768 23.5021C26.7989 23.5175 26.8297 23.533 26.8451 23.5484C26.8605 23.5638 26.8914 23.5946 26.9068 23.6255C26.9222 23.6563 26.9222 23.6872 26.9222 23.718C26.9222 23.7489 26.9222 23.7797 26.9068 23.8105C26.8914 23.8414 26.876 23.8722 26.8451 23.8876C26.8143 23.9031 26.7989 23.9339 26.768 23.9493C26.7372 23.9648 26.7063 23.9648 26.6755 23.9648C26.6446 23.9648 26.5984 23.9648 26.5675 23.9493C26.5367 23.9339 26.5059 23.9185 26.4904 23.8876C26.475 23.8722 26.4442 23.8414 26.4287 23.8105C26.4133 23.7797 26.4133 23.7489 26.4133 23.718C26.4133 23.6872 26.4133 23.6563 26.4287 23.6255C26.4442 23.5946 26.4596 23.5638 26.4904 23.5484C26.5059 23.533 26.5367 23.5021 26.5675 23.5021C26.5984 23.4867 26.6446 23.4867 26.6755 23.4867Z" fill="#EDEDED"/>
</svg>
