<svg width="37" height="24" viewBox="0 0 37 24" fill="none" xmlns="http://www.w3.org/2000/svg">
<path d="M33.3441 2.90405H3.34409V5.54133H33.3441V2.90405Z" fill="white"/>
<path d="M17.4072 8.45216L15.847 15.7074H13.9599L15.5204 8.45216H17.4072ZM25.3462 13.137L26.3395 10.4126L26.9109 13.137H25.3462ZM27.4525 15.7074H29.1975L27.6731 8.45216H26.0633C25.7004 8.45216 25.3949 8.66157 25.2595 8.9842L22.4278 15.7074H24.4097L24.803 14.624H27.2237L27.4525 15.7074ZM22.5263 13.3388C22.5346 11.4242 19.8651 11.318 19.883 10.4627C19.8889 10.2026 20.1379 9.92546 20.6831 9.85475C20.9534 9.82012 21.699 9.7922 22.5442 10.1795L22.8748 8.64025C22.4208 8.47707 21.8365 8.31976 21.1097 8.31976C19.2442 8.31976 17.9319 9.3054 17.9213 10.7179C17.9093 11.7625 18.859 12.3449 19.5727 12.6926C20.3086 13.048 20.555 13.2766 20.5517 13.594C20.5467 14.0808 19.9646 14.2964 19.4231 14.3046C18.4737 14.3193 17.9235 14.0494 17.4849 13.846L17.1424 15.4363C17.5841 15.6375 18.398 15.8124 19.2403 15.8214C21.2235 15.8214 22.5204 14.8473 22.5263 13.3388ZM14.7108 8.45216L11.6533 15.7074H9.65881L8.15402 9.9173C8.06284 9.56118 7.9834 9.43036 7.70614 9.27992C7.25212 9.03473 6.50309 8.80557 5.84423 8.663L5.88889 8.45216H9.1C9.50894 8.45216 9.87695 8.72312 9.97056 9.1916L10.7654 13.3904L12.7284 8.45216H14.7108Z" fill="white"/>
<path d="M33.3445 18.5998H3.34448V21.2374H33.3445V18.5998Z" fill="white"/>
<rect x="0.844002" y="0.5" width="35" height="23" stroke="white"/>
</svg>
