<svg width="25" height="24" viewBox="0 0 25 24" fill="none" xmlns="http://www.w3.org/2000/svg">
<path fill-rule="evenodd" clip-rule="evenodd" d="M19.86 0.718941H5.48117C3.23117 0.718941 1.40717 2.54293 1.40717 4.79294V19.1718C1.40717 21.4218 3.23117 23.2458 5.48117 23.2458H19.86C22.11 23.2458 23.934 21.4218 23.934 19.1718V4.79294C23.934 2.54293 22.11 0.718941 19.86 0.718941ZM5.48117 0C2.83411 0 0.688232 2.14587 0.688232 4.79294V19.1718C0.688232 21.8188 2.83411 23.9647 5.48117 23.9647H19.86C22.5071 23.9647 24.6529 21.8188 24.6529 19.1718V4.79294C24.6529 2.14587 22.5071 0 19.86 0H5.48117Z" fill="white"/>
<path fill-rule="evenodd" clip-rule="evenodd" d="M15.2199 6.85697L15.2142 6.85017C15.149 6.77231 15.0947 6.70737 15.0448 6.64713C15.0151 6.6114 14.9871 6.57732 14.9592 6.54317C14.3791 5.83283 13.6931 5.2495 12.81 4.96963C10.3579 4.20197 7.00804 4.8415 5.53474 7.8717C4.44438 10.1117 4.42073 12.4631 5.09994 14.8178C5.71833 16.9612 7.03845 18.5032 9.28784 19.0023C11.6037 19.5159 13.5861 18.864 15.1304 17.0185C15.254 16.8934 15.3841 16.7749 15.5201 16.6633V19.1158H19.8601V5.15171C19.5782 5.15171 19.298 5.15135 19.0192 5.15099H19.0153C17.9018 5.14955 16.8103 5.14814 15.7195 5.1697C15.6069 5.1697 15.4311 5.42034 15.4176 5.56645C15.3892 5.87903 15.3935 6.19439 15.3986 6.56662V6.56689C15.4007 6.72461 15.403 6.89254 15.403 7.07481H15.4019C15.332 6.99099 15.2724 6.91977 15.2199 6.85697ZM9.42864 11.8662C9.42864 10.2107 10.1045 9.09794 11.3784 8.65959C13.7956 7.82674 15.9662 9.55876 15.6857 12.0955C15.6609 12.3203 15.6283 12.5451 15.5832 12.7598C15.2453 14.4289 13.9455 15.4135 12.3167 15.2505C10.5561 15.0752 9.48045 13.9366 9.4354 12.2023C9.42949 12.1189 9.42927 12.0348 9.42905 11.9505C9.42899 11.9224 9.42891 11.8943 9.42864 11.8662Z" fill="white"/>
</svg>
