<svg width="404" height="132" viewBox="0 0 404 132" fill="none" xmlns="http://www.w3.org/2000/svg">
<g clip-path="url(#clip0_12_86)">
<path d="M-0.519745 71.4565H177.531V131.536H-0.519745V71.4565Z" fill="#000055"/>
<path d="M39.1864 105.807C39.0205 107.021 38.69 108.103 38.1276 109.12C37.5652 110.136 36.8032 110.988 35.9103 111.71C35.0162 112.465 33.9574 113.022 32.7664 113.415C31.5418 113.842 30.2187 114.039 28.7958 114.039C27.0087 114.039 25.42 113.743 24.0295 113.153C22.6402 112.596 21.4817 111.776 20.5227 110.661C19.53 109.579 18.8342 108.3 18.3379 106.759C17.8415 105.217 17.5771 103.512 17.5771 101.61C17.5771 99.7408 17.8415 98.0359 18.3715 96.5268C18.9003 95.0189 19.6622 93.7406 20.6549 92.6905C21.6139 91.6416 22.8061 90.8221 24.229 90.2646C25.6183 89.7072 27.1734 89.4116 28.928 89.4116C30.3509 89.4116 31.6416 89.6086 32.7989 89.9691C33.9574 90.362 34.9837 90.9195 35.8767 91.6091C36.7708 92.33 37.4979 93.1831 38.0615 94.1659C38.6239 95.1836 38.9881 96.2973 39.1864 97.5445H34.6857C34.4537 96.7239 34.1557 96.003 33.7916 95.4455C33.395 94.888 32.9647 94.4615 32.4684 94.101C31.9384 93.7406 31.4096 93.5111 30.8136 93.3465C30.185 93.2155 29.5565 93.1494 28.8943 93.1494C28.0014 93.1494 27.1409 93.314 26.379 93.6745C25.5858 94.0686 24.89 94.5924 24.3275 95.3145C23.7651 96.0354 23.3024 96.9209 22.9707 97.9698C22.6402 99.0199 22.4744 100.233 22.4744 101.61C22.4744 103.02 22.6402 104.299 22.9707 105.348C23.3024 106.431 23.7651 107.349 24.3275 108.07C24.89 108.824 25.5522 109.382 26.3129 109.742C27.0748 110.104 27.8692 110.3 28.7297 110.3C29.4243 110.3 30.1189 110.235 30.7475 110.038C31.376 109.874 31.9721 109.611 32.5021 109.251C32.9984 108.923 33.4611 108.431 33.8252 107.874C34.1894 107.316 34.4874 106.628 34.6857 105.807H39.1864Z" fill="#FF267E"/>
<path d="M52.2888 89.8318H57.0538L66.0215 113.606H60.8923L59.205 108.785H49.8732L48.1847 113.606H43.3535L52.2888 89.8318ZM51.2288 104.949H57.8482L54.5385 95.5701L51.2288 104.949Z" fill="#FF267E"/>
<path d="M77.8766 103.184C76.9164 102.987 75.9898 102.725 75.1294 102.365C74.2364 102.003 73.4757 101.544 72.846 100.987C72.185 100.429 71.655 99.7732 71.2909 98.9863C70.8943 98.2329 70.696 97.315 70.696 96.2973C70.696 95.085 70.9928 94.0686 71.5889 93.1831C72.1514 92.33 72.9121 91.6091 73.8387 91.0516C74.7328 90.4941 75.7591 90.1 76.9164 89.8057C78.0413 89.5426 79.1673 89.4116 80.2586 89.4116C81.4832 89.4116 82.6741 89.575 83.8002 89.9366C84.8914 90.2971 85.8841 90.7885 86.7446 91.4121C87.605 92.0681 88.3009 92.8551 88.8297 93.773C89.326 94.6909 89.624 95.7074 89.6901 96.8548H85.1234C85.0248 96.1664 84.8253 95.5764 84.4948 95.085C84.1644 94.6261 83.7666 94.232 83.3039 93.9364C82.84 93.6745 82.3112 93.445 81.7476 93.314C81.1851 93.2155 80.6227 93.1494 80.0603 93.1494C79.4978 93.1494 78.9679 93.2155 78.4054 93.314C77.843 93.4126 77.3467 93.576 76.9164 93.8054C76.4862 94.0686 76.122 94.3629 75.8576 94.7234C75.5596 95.1175 75.4274 95.5764 75.4274 96.1015C75.4274 96.9209 75.7591 97.5769 76.3876 98.0683C77.0162 98.5609 77.8105 98.889 78.7696 99.0524L81.9134 99.6098C82.8736 99.7732 83.8663 100.036 84.859 100.331C85.818 100.626 86.7121 101.053 87.5065 101.578C88.2672 102.135 88.8958 102.824 89.3921 103.643C89.8884 104.496 90.1204 105.545 90.1204 106.759C90.1204 107.972 89.856 109.054 89.2936 109.939C88.7311 110.857 87.9692 111.612 87.0763 112.235C86.1497 112.857 85.0909 113.284 83.9649 113.58C82.8075 113.908 81.6154 114.039 80.392 114.039C78.9018 114.039 77.5786 113.842 76.3876 113.447C75.163 113.087 74.1367 112.529 73.2438 111.809C72.3497 111.12 71.655 110.267 71.1262 109.218C70.5963 108.202 70.2658 107.053 70.166 105.775H74.7328C74.865 106.66 75.0969 107.381 75.4611 107.939C75.8252 108.53 76.2554 108.989 76.7842 109.349C77.2806 109.71 77.8766 109.939 78.5388 110.07C79.1673 110.235 79.862 110.3 80.5566 110.3C81.0866 110.3 81.649 110.235 82.2115 110.136C82.7739 110.038 83.2702 109.841 83.7666 109.579C84.2305 109.349 84.627 109.021 84.9251 108.562C85.2231 108.136 85.3553 107.611 85.3553 106.988C85.3553 106.496 85.2556 106.037 85.0248 105.676C84.7929 105.316 84.4948 105.02 84.0983 104.758C83.7005 104.529 83.2378 104.299 82.7078 104.135C82.1454 103.971 81.5493 103.84 80.9207 103.742L77.8766 103.184Z" fill="#FF267E"/>
<path d="M96.3377 89.8318H101.07V113.606H96.3377V89.8318Z" fill="#FF267E"/>
<path d="M122.756 113.606L113.158 95.4716V113.606H108.691V89.8318H114.847L124.443 107.966V89.8318H128.91V113.606H122.756Z" fill="#FF267E"/>
<path d="M140.458 101.709C140.458 103.118 140.656 104.332 141.02 105.414C141.384 106.496 141.848 107.381 142.477 108.103C143.105 108.824 143.834 109.382 144.66 109.742C145.488 110.104 146.381 110.3 147.308 110.3C148.235 110.3 149.129 110.104 149.955 109.742C150.782 109.382 151.511 108.824 152.139 108.103C152.769 107.381 153.265 106.496 153.628 105.414C153.96 104.332 154.158 103.118 154.158 101.709C154.158 100.298 153.96 99.0848 153.628 98.0035C153.265 96.9533 152.769 96.0679 152.139 95.347C151.511 94.6261 150.782 94.0686 149.955 93.7069C149.129 93.3465 148.235 93.1494 147.308 93.1494C146.381 93.1494 145.488 93.3465 144.66 93.7069C143.834 94.0686 143.105 94.6261 142.477 95.347C141.848 96.0679 141.384 96.9533 141.02 98.0035C140.656 99.0848 140.458 100.298 140.458 101.709ZM159.055 101.709C159.055 103.545 158.791 105.217 158.229 106.725C157.666 108.267 156.905 109.546 155.879 110.628C154.82 111.743 153.596 112.563 152.173 113.153C150.716 113.743 149.095 114.039 147.308 114.039C145.521 114.039 143.9 113.743 142.477 113.153C141.02 112.563 139.797 111.743 138.771 110.628C137.712 109.546 136.95 108.267 136.387 106.725C135.825 105.217 135.561 103.545 135.561 101.709C135.561 99.8718 135.825 98.1993 136.387 96.659C136.95 95.1499 137.712 93.8715 138.771 92.789C139.797 91.7064 141.02 90.887 142.477 90.2971C143.9 89.7072 145.521 89.4116 147.308 89.4116C149.095 89.4116 150.716 89.7072 152.173 90.2971C153.596 90.887 154.82 91.7064 155.879 92.789C156.905 93.8715 157.666 95.1499 158.229 96.659C158.791 98.1993 159.055 99.8718 159.055 101.709Z" fill="#FF267E"/>
<path fill-rule="evenodd" clip-rule="evenodd" d="M178.024 71.4365C178.024 71.1685 177.807 70.9523 177.537 70.9523H-0.512302C-0.781501 70.9523 -0.999023 71.1685 -0.999023 71.4365V131.516C-0.999023 131.784 -0.781501 132 -0.512302 132H177.537C177.807 132 178.024 131.784 178.024 131.516V71.4365ZM177.052 71.9207V131.032H-0.0267832V71.9207H177.052Z" fill="#FF267E"/>
<path d="M-1 0H404V72.0895H-1V0Z" fill="#000055"/>
<path d="M130.352 34.6358H106.249V27.6407H135.407V17.9832H92.2725V53.9498H106.249V44.2922H130.352V34.6358Z" fill="#FF267E"/>
<path d="M206.954 41.9373L194.165 17.9832H178.12L198.895 53.9498H214.815L235.572 17.9832H219.762L206.954 41.9373Z" fill="#FF267E"/>
<path d="M280.397 35.6787C283.593 34.44 285.733 31.3738 285.793 27.9459C285.793 22.0478 280.811 17.9832 271.008 17.9832H239.367V53.9498H271.744C282.267 53.9498 286.944 49.795 286.944 43.7708C286.872 40.4078 284.84 37.3692 280.397 35.6787ZM252.983 26.6868H268.579C268.757 26.6507 268.938 26.6327 269.121 26.6327C270.632 26.6327 271.873 27.8762 271.873 29.3841C271.873 30.8932 270.632 32.1355 269.121 32.1355C268.938 32.1355 268.757 32.1175 268.579 32.0814H252.983V26.6868ZM269.712 45.3892H252.983V39.9945H269.712C269.89 39.9584 270.071 39.9404 270.254 39.9404C271.765 39.9404 273.006 41.1839 273.006 42.6918C273.006 44.2009 271.765 45.4432 270.254 45.4432C270.071 45.4432 269.89 45.4252 269.712 45.3892Z" fill="#FF267E"/>
<path d="M307.474 39.8683H331.541V32.0646H307.474V27.6407H334.076V17.9832H293.497V53.9498H334.706V44.2922H307.474V39.8683Z" fill="#FF267E"/>
<path d="M340.483 17.9832V27.6407H356.169V53.9498H370.307V27.6407H385.974V17.9832H340.483Z" fill="#FF267E"/>
<path d="M151.639 17.9832L130.882 53.9498H145.739L148.546 48.6452H170.742L173.549 53.9498H189.018L168.242 17.9832H151.639ZM153.438 39.3108L159.572 27.7296L165.706 39.3108H153.438Z" fill="#FF267E"/>
<path d="M17.6055 32.0769L29.9949 53.9414L45.9181 53.9361L33.5103 32.0709L17.6055 32.0769Z" fill="#FF267E"/>
<path d="M58.2851 32.0839L45.8957 53.9484L61.8011 53.9534L74.1906 32.0889L58.2851 32.0839Z" fill="#FF267E"/>
<path d="M45.9032 10.2521L33.4912 32.0663H58.296L45.9032 10.2521Z" fill="#FF267E"/>
</g>
<defs>
<clipPath id="clip0_12_86">
<rect width="405" height="132" fill="white" transform="translate(-1)"/>
</clipPath>
</defs>
</svg>
