<svg width="31" height="24" viewBox="0 0 31 24" fill="none" xmlns="http://www.w3.org/2000/svg">
<path fill-rule="evenodd" clip-rule="evenodd" d="M9.15675 18.2133C11.2015 18.2133 13.0891 17.5393 14.6091 16.4014C12.681 14.5676 11.479 11.9776 11.479 9.10675C11.479 6.23569 12.681 3.64569 14.6091 1.81208C13.0891 0.674002 11.2015 0 9.15675 0C4.12725 0 0.0500031 4.07724 0.0500031 9.10675C0.0500031 14.136 4.12725 18.2133 9.15675 18.2133ZM21.5443 0C19.4994 0 17.612 0.674002 16.0919 1.81208C18.0199 3.64569 19.2218 6.23569 19.2218 9.10675C19.2218 11.9776 18.0199 14.5676 16.0919 16.4014C17.612 17.5393 19.4994 18.2133 21.5443 18.2133C26.5736 18.2133 30.6509 14.136 30.6509 9.10675C30.6509 4.07724 26.5736 0 21.5443 0ZM18.2633 9.10675C18.2633 6.46925 17.142 4.09363 15.3505 2.43062C13.5588 4.09363 12.4376 6.46925 12.4376 9.10675C12.4376 11.744 13.5588 14.1196 15.3505 15.7826C17.142 14.1196 18.2633 11.744 18.2633 9.10675Z" fill="#EDEDED"/>
<path d="M4.91724 23.9087V22.2275C4.91724 21.583 4.52588 21.1627 3.85498 21.1627C3.51953 21.1627 3.15612 21.2748 2.90453 21.6391C2.70885 21.3309 2.4293 21.1627 2.00999 21.1627C1.73045 21.1627 1.45091 21.2468 1.22727 21.555V21.2188H0.640228V23.9087H1.22727V22.4236C1.22727 21.9473 1.47886 21.7231 1.87022 21.7231C2.26158 21.7231 2.45726 21.9753 2.45726 22.4236V23.9087H3.0443V22.4236C3.0443 21.9473 3.32384 21.7231 3.68725 21.7231C4.07861 21.7231 4.27429 21.9753 4.27429 22.4236V23.9087H4.91724ZM13.611 21.2188H12.6606V20.4062H12.0736V21.2188H11.5424V21.7512H12.0736V22.984C12.0736 23.6004 12.3251 23.9647 12.996 23.9647C13.2476 23.9647 13.5272 23.8806 13.7229 23.7686L13.5551 23.2642C13.3874 23.3763 13.1917 23.4043 13.052 23.4043C12.7724 23.4043 12.6606 23.2362 12.6606 22.956V21.7512H13.611V21.2188ZM18.5869 21.1627C18.2515 21.1627 18.0278 21.3309 17.8881 21.555V21.2188H17.301V23.9087H17.8881V22.3956C17.8881 21.9473 18.0837 21.6951 18.4471 21.6951C18.559 21.6951 18.6987 21.7231 18.8106 21.7512L18.9783 21.1908C18.8665 21.1628 18.6987 21.1627 18.5869 21.1627ZM11.0672 21.4429C10.7877 21.2468 10.3963 21.1627 9.97698 21.1627C9.30607 21.1627 8.8588 21.499 8.8588 22.0314C8.8588 22.4797 9.19425 22.7318 9.78129 22.8159L10.0608 22.8439C10.3683 22.9 10.5361 22.984 10.5361 23.1241C10.5361 23.3203 10.3124 23.4604 9.92107 23.4604C9.5297 23.4604 9.22221 23.3203 9.02653 23.1802L8.74699 23.6285C9.05449 23.8526 9.4738 23.9647 9.89312 23.9647C10.6758 23.9647 11.1231 23.6005 11.1231 23.0961C11.1231 22.6198 10.7597 22.3676 10.2006 22.2835L9.92107 22.2555C9.66948 22.2275 9.4738 22.1715 9.4738 22.0033C9.4738 21.8072 9.66948 21.6951 9.97698 21.6951C10.3124 21.6951 10.6479 21.8352 10.8156 21.9193L11.0672 21.4429ZM26.6657 21.1627C26.3303 21.1627 26.1066 21.3309 25.9669 21.555V21.2188H25.3798V23.9087H25.9669V22.3956C25.9669 21.9473 26.1625 21.6951 26.526 21.6951C26.6378 21.6951 26.7775 21.7231 26.8894 21.7512L27.0571 21.1908C26.9453 21.1628 26.7775 21.1627 26.6657 21.1627ZM19.174 22.5637C19.174 23.3763 19.733 23.9647 20.5996 23.9647C20.991 23.9647 21.2705 23.8807 21.5501 23.6565L21.2705 23.1802C21.0469 23.3483 20.8233 23.4323 20.5717 23.4323C20.0964 23.4323 19.761 23.0961 19.761 22.5637C19.761 22.0594 20.0964 21.7231 20.5717 21.6951C20.8233 21.6951 21.0469 21.7792 21.2705 21.9473L21.5501 21.471C21.2705 21.2468 20.991 21.1627 20.5996 21.1627C19.733 21.1627 19.174 21.7512 19.174 22.5637ZM24.5971 22.5637V21.2188H24.0101V21.555C23.8144 21.3029 23.5348 21.1627 23.1714 21.1627C22.4167 21.1627 21.8296 21.7512 21.8296 22.5637C21.8296 23.3763 22.4167 23.9647 23.1714 23.9647C23.5628 23.9647 23.8423 23.8246 24.0101 23.5724V23.9087H24.5971V22.5637ZM22.4446 22.5637C22.4446 22.0874 22.7521 21.6951 23.2553 21.6951C23.7305 21.6951 24.066 22.0594 24.066 22.5637C24.066 23.0401 23.7305 23.4323 23.2553 23.4323C22.7521 23.4043 22.4446 23.0401 22.4446 22.5637ZM15.4281 21.1627C14.6454 21.1627 14.0863 21.7231 14.0863 22.5637C14.0863 23.4043 14.6454 23.9647 15.456 23.9647C15.8474 23.9647 16.2387 23.8526 16.5462 23.6005L16.2667 23.1802C16.0431 23.3483 15.7635 23.4604 15.484 23.4604C15.1206 23.4604 14.7572 23.2922 14.6733 22.8159H16.6581C16.6581 22.7318 16.6581 22.6758 16.6581 22.5917C16.686 21.7231 16.1828 21.1627 15.4281 21.1627ZM15.4281 21.6671C15.7915 21.6671 16.0431 21.8913 16.099 22.3116H14.7013C14.7572 21.9473 15.0088 21.6671 15.4281 21.6671ZM29.9923 22.5637V20.1541H29.4052V21.555C29.2096 21.3029 28.93 21.1627 28.5666 21.1627C27.8118 21.1627 27.2248 21.7512 27.2248 22.5637C27.2248 23.3763 27.8118 23.9647 28.5666 23.9647C28.958 23.9647 29.2375 23.8246 29.4052 23.5724V23.9087H29.9923V22.5637ZM27.8398 22.5637C27.8398 22.0874 28.1473 21.6951 28.6505 21.6951C29.1257 21.6951 29.4612 22.0594 29.4612 22.5637C29.4612 23.0401 29.1257 23.4323 28.6505 23.4323C28.1473 23.4043 27.8398 23.0401 27.8398 22.5637ZM8.21586 22.5637V21.2188H7.62881V21.555C7.43313 21.3029 7.15359 21.1627 6.79018 21.1627C6.03542 21.1627 5.44837 21.7512 5.44837 22.5637C5.44837 23.3763 6.03542 23.9647 6.79018 23.9647C7.18154 23.9647 7.46109 23.8246 7.62881 23.5724V23.9087H8.21586V22.5637ZM6.03541 22.5637C6.03541 22.0874 6.34291 21.6951 6.84609 21.6951C7.32131 21.6951 7.65677 22.0594 7.65677 22.5637C7.65677 23.0401 7.32131 23.4323 6.84609 23.4323C6.34291 23.4043 6.03541 23.0401 6.03541 22.5637Z" fill="#EDEDED"/>
</svg>
